<svg width="303" height="240" viewBox="0 0 303 240" fill="none" xmlns="http://www.w3.org/2000/svg">
<rect width="303" height="240" rx="10" fill="#F3E8D4"/>
<path d="M152 116V121C152 122.105 151.105 123 150 123H149" stroke="#133115" stroke-width="2" stroke-linecap="round"/>
<path d="M146 127C149 128 150 128 151.5 128C153 128 154.5 127.75 156 127" stroke="#133115" stroke-width="2" stroke-linecap="round"/>
<path d="M158 115V118" stroke="#133115" stroke-width="2" stroke-linecap="round"/>
<path d="M144 115C144 117.4 144 118 144 118" stroke="#133115" stroke-width="2" stroke-linecap="round"/>
<path d="M136 113V108C136 106.343 137.343 105 139 105H144" stroke="#133115" stroke-width="2" stroke-linecap="round"/>
<path d="M166 127V132C166 133.657 164.657 135 163 135H158" stroke="#133115" stroke-width="2" stroke-linecap="round"/>
<path d="M136 127V132C136 133.657 137.343 135 139 135H144" stroke="#133115" stroke-width="2" stroke-linecap="round"/>
<path d="M166 113V108C166 106.343 164.657 105 163 105H158" stroke="#133115" stroke-width="2" stroke-linecap="round"/>
</svg>
