<svg width="228" height="74" viewBox="0 0 228 74" fill="none" xmlns="http://www.w3.org/2000/svg">
<path d="M146.016 0C156.246 7.29002 159.193 10.8388 161.73 18.9267C167.419 15.9836 168.434 11.5387 168.808 5.255C170.918 7.71575 170.483 12.9575 169.279 17.1691C167.174 21.9011 158.304 27.5316 156.447 36.0532C155.873 37.7463 153.951 41.5088 154.817 42.5383C156.017 43.5562 163.132 41.1231 165.573 38.3845C168.364 35.2531 169.492 28.8921 169.665 23.9098C173.579 33.0539 168.981 44.19 163.28 44.6424C163.28 44.6424 151.52 46.4154 149.757 44.8955C148.844 41.2837 156.972 29.0053 156.774 21.3224C156.106 13.8664 151.997 6.66704 146.016 0Z" fill="#92B774"/>
<path d="M65.5201 21.0991C66.1884 13.6432 70.2758 6.66704 76.2568 0C66.0269 7.29002 63.0805 10.8388 60.5429 18.9267C54.8539 15.9836 53.8392 11.5387 53.4649 5.25499C51.3555 7.71575 51.7904 12.9575 52.9939 17.1691C55.099 21.9011 63.9689 27.5316 65.826 36.0532C66.4001 37.7463 67.1504 41.042 66.2009 41.7659C64.9372 42.7294 59.1411 41.1231 56.7 38.3845C53.9089 35.2531 52.7809 28.8921 52.6083 23.9098C48.6941 33.0539 53.9928 45.0326 59.6935 45.4851C59.6935 45.4851 69.6141 46.8377 71.9933 45.3338C73.7052 40.8861 65.5201 21.0991 65.5201 21.0991Z" fill="#92B774"/>
<path d="M135.542 54.9372C138.857 55.4576 143.611 54.5099 147.511 55.8269C136.819 60.5017 131.571 65.9373 131.62 69.0582C133.275 69.5631 145.246 67.0777 151.876 56.6624C150.378 64.7999 144.582 68.9596 139.879 71.5551C135.935 73.7322 130.1 74.0964 126.562 73.0867C124.705 72.1247 120.922 70.3725 118.869 67.7756C126.934 62.8621 129.156 59.8125 135.542 54.9372Z" fill="#92B774"/>
<path d="M90.4317 55.314C87.116 55.8344 82.3628 54.8867 78.4623 56.2037C89.1543 60.8785 94.4019 66.3141 94.353 69.435C92.6984 69.9399 80.7275 67.4545 74.0975 57.0392C75.5949 65.1767 81.3918 69.3364 86.094 71.9319C90.0383 74.109 95.8734 74.4732 99.4116 73.4635C101.269 72.5015 105.051 70.7493 107.105 68.1524C99.0394 63.2389 96.817 60.1893 90.4317 55.314Z" fill="#92B774"/>
<path d="M3.71154 53.2344H0V52.8454H0.904842V48.0641H0V47.6751H5.19448L5.44582 49.6363H5.05206C4.97386 49.0501 4.82025 48.6408 4.59125 48.4085C4.36225 48.1789 3.92936 48.0641 3.29262 48.0641H2.01077V50.1225C2.54697 50.0198 3.08597 49.9685 3.62776 49.9685C4.0746 49.9685 4.45999 50.0212 4.78394 50.1265C5.1079 50.2319 5.35228 50.3723 5.51704 50.5479C5.68182 50.7235 5.80051 50.8991 5.87312 51.0747C5.94573 51.2503 5.98203 51.4299 5.98203 51.6136C5.98203 51.773 5.95411 51.9337 5.89825 52.0958C5.8424 52.2552 5.75163 52.4172 5.62596 52.582C5.50029 52.7468 5.31317 52.8873 5.06461 53.0034C4.81606 53.1196 4.52143 53.1911 4.18071 53.2182C4.08017 53.229 3.92379 53.2344 3.71154 53.2344ZM2.01077 50.5115V52.8454H3.5356C3.95451 52.8454 4.25333 52.7211 4.43207 52.4726C4.6108 52.2241 4.70016 51.9405 4.70016 51.6217C4.70016 51.4812 4.67923 51.3448 4.63734 51.2125C4.59544 51.0801 4.52842 50.9504 4.43626 50.8235C4.34411 50.6965 4.20585 50.5939 4.02153 50.5155C3.83721 50.4372 3.61658 50.398 3.35965 50.398C2.96308 50.398 2.51346 50.4358 2.01077 50.5115ZM6.87012 53.2344V52.8535H7.04606C7.3337 52.8535 7.51803 52.84 7.59902 52.813C7.67722 52.786 7.73028 52.7373 7.7582 52.6671L9.836 47.7886C9.85834 47.7291 9.8765 47.6873 9.89046 47.6629C9.90722 47.6386 9.93653 47.6184 9.97843 47.6022C10.0231 47.586 10.0846 47.5779 10.1628 47.5779C10.2242 47.5779 10.2689 47.5806 10.2968 47.586C10.3247 47.5914 10.3582 47.6103 10.3973 47.6427C10.4364 47.6751 10.47 47.7237 10.4979 47.7886L12.6427 52.8535H13.4554V53.2344C13.2599 53.2182 12.8047 53.21 12.0897 53.21C11.3189 53.21 10.826 53.2182 10.611 53.2344V52.8535H11.4111L10.9084 51.6703H8.66306L8.24414 52.6509C8.2218 52.6725 8.21063 52.7049 8.21063 52.7481C8.21063 52.8184 8.45919 52.8535 8.95629 52.8535V53.2344C8.74963 53.2182 8.38098 53.21 7.85036 53.21C7.83081 53.21 7.50407 53.2182 6.87012 53.2344ZM9.78573 49.0366L8.83062 51.2894H10.7409L9.78573 49.0366ZM14.1298 53.2344V52.8535H15.0347V48.056H14.1298V47.6751H17.6235C18.305 47.6751 18.8454 47.8237 19.2447 48.1208C19.6441 48.418 19.8438 48.7961 19.8438 49.2554C19.8438 49.7146 19.6385 50.0847 19.2279 50.3656C18.8174 50.6465 18.3105 50.787 17.7073 50.787H16.2244V52.8535H17.1292V53.2344C16.917 53.2182 16.4171 53.21 15.6295 53.21C14.842 53.21 14.3421 53.2182 14.1298 53.2344ZM16.1741 48.056V50.4547H17.2968C17.4699 50.4547 17.6249 50.4412 17.7618 50.4142C17.8986 50.3872 18.0117 50.3561 18.1011 50.321C18.1905 50.2859 18.2659 50.2332 18.3273 50.163C18.3887 50.0928 18.4348 50.0293 18.4655 49.9726C18.4963 49.9158 18.5186 49.8389 18.5326 49.7416C18.5465 49.6444 18.5549 49.566 18.5577 49.5066C18.5605 49.4472 18.5619 49.3634 18.5619 49.2554C18.5619 49.1257 18.5591 49.0271 18.5535 48.9596C18.5479 48.892 18.5354 48.8029 18.5158 48.6921C18.4963 48.5814 18.4599 48.495 18.4069 48.4328C18.3538 48.3707 18.2826 48.3072 18.1933 48.2424C18.1039 48.1776 17.9838 48.1303 17.833 48.1006C17.6822 48.0709 17.5062 48.056 17.3052 48.056H16.1741ZM20.7277 53.2344V52.8535H20.9036C21.194 52.8535 21.3784 52.84 21.4566 52.813C21.5376 52.786 21.5906 52.7373 21.6157 52.6671L23.6935 47.7886C23.7159 47.7291 23.7354 47.6873 23.7522 47.6629C23.7689 47.6386 23.7983 47.6184 23.8401 47.6022C23.882 47.586 23.9435 47.5779 24.0245 47.5779C24.0859 47.5779 24.1306 47.5806 24.1585 47.586C24.1837 47.5914 24.2172 47.6103 24.2591 47.6427C24.2982 47.6751 24.3317 47.7237 24.3596 47.7886L26.5002 52.8535H27.3171V53.2344C27.1188 53.2182 26.6622 53.21 25.9473 53.21C25.1765 53.21 24.685 53.2182 24.4727 53.2344V52.8535H25.2686L24.7659 51.6703H22.5206L22.1017 52.6509C22.0821 52.6725 22.0724 52.7049 22.0724 52.7481C22.0724 52.8184 22.3195 52.8535 22.8138 52.8535V53.2344C22.6072 53.2182 22.2399 53.21 21.7121 53.21C21.6925 53.21 21.3644 53.2182 20.7277 53.2344ZM23.6475 49.0366L22.6881 51.2894H24.5984L23.6475 49.0366ZM27.9497 53.2344V52.8535H28.1926C28.363 52.8535 28.5333 52.8454 28.7037 52.8292C28.8322 52.8184 28.9146 52.8049 28.9509 52.7886C28.9872 52.7724 29.0248 52.74 29.0639 52.6914L30.7564 50.5439L28.8964 48.056H28.0711V47.6751C28.2694 47.6913 28.7232 47.6994 29.4326 47.6994C30.2146 47.6994 30.72 47.6913 30.949 47.6751V48.056H30.2537L31.4517 49.6525L32.5577 48.2343C32.5632 48.2289 32.573 48.214 32.587 48.1897C32.6037 48.1654 32.6149 48.1505 32.6205 48.1451C32.425 48.0857 32.1695 48.056 31.8539 48.056V47.6751C32.055 47.6913 32.4781 47.6994 33.1232 47.6994C33.637 47.6994 34.0127 47.6913 34.25 47.6751V48.056H34.0029C33.813 48.056 33.6524 48.0641 33.5211 48.0803C33.3759 48.0884 33.2852 48.1006 33.2489 48.1168C33.2125 48.1303 33.1707 48.1667 33.1232 48.2262L31.7157 50.0171L33.8353 52.8535H34.6606V53.2344C34.4623 53.2182 34.0085 53.21 33.2991 53.21C32.5172 53.21 32.0131 53.2182 31.7869 53.2344V52.8535H32.4823L31.0203 50.9005L29.6379 52.6752C29.6323 52.6806 29.6225 52.6955 29.6085 52.7198C29.5918 52.7441 29.5806 52.7589 29.575 52.7643C29.7705 52.8238 30.0261 52.8535 30.3416 52.8535V53.2344C30.1406 53.2182 29.7175 53.21 29.0723 53.21C28.5585 53.21 28.1842 53.2182 27.9497 53.2344ZM35.4775 50.4872C35.4775 49.6227 35.7553 48.9231 36.3111 48.3882C36.8668 47.8534 37.6167 47.586 38.5606 47.586C39.4878 47.586 40.2321 47.8507 40.7934 48.3802C41.3548 48.9096 41.6354 49.6119 41.6354 50.4872C41.6354 51.33 41.359 52.0134 40.806 52.5374C40.253 53.0615 39.5018 53.3235 38.5523 53.3235C37.6139 53.3235 36.8668 53.0642 36.3111 52.5455C35.7553 52.0242 35.4775 51.3381 35.4775 50.4872ZM36.7593 50.3656C36.7593 51.1328 36.8738 51.7244 37.1028 52.1404C37.262 52.4294 37.4743 52.6428 37.7396 52.7806C38.0077 52.9156 38.2786 52.9832 38.5523 52.9832C39.1667 52.9832 39.6386 52.7265 39.9682 52.2133C40.2251 51.8027 40.3536 51.1868 40.3536 50.3656C40.3536 49.62 40.2363 49.0555 40.0017 48.6719C39.8397 48.418 39.6289 48.2275 39.3691 48.1006C39.1094 47.9736 38.8371 47.9101 38.5523 47.9101C38.287 47.9101 38.0272 47.9682 37.7731 48.0844C37.5217 48.2005 37.3151 48.3748 37.1531 48.6071C36.8906 49.0014 36.7593 49.5876 36.7593 50.3656ZM42.4272 52.351C42.4272 52.1565 42.4914 52.0012 42.6199 51.8851C42.7511 51.7689 42.9019 51.7108 43.0723 51.7108C43.2538 51.7108 43.406 51.7676 43.5289 51.881C43.6518 51.9945 43.7132 52.1431 43.7132 52.3267C43.7132 52.5807 43.582 52.7751 43.3195 52.9102C43.4703 52.9264 43.5485 52.9345 43.554 52.9345C43.7132 52.9345 43.8501 52.9021 43.9646 52.8373C44.0791 52.7724 44.1908 52.6414 44.2997 52.4443C44.4086 52.2471 44.4952 51.9729 44.5594 51.6217C44.6236 51.2705 44.6753 50.7978 44.7144 50.2035C44.7563 49.6092 44.7773 48.8961 44.7773 48.0641H43.8305V47.6751H49.3811V48.0641H48.4762V52.8454H49.3811V53.2344C48.8756 53.2182 48.3659 53.2101 47.8521 53.2101C47.3605 53.2101 46.8676 53.2182 46.3733 53.2344V52.8454H47.2865V48.0641H45.1752C45.1752 49.4742 45.118 50.5601 45.0035 51.3219C44.889 52.0836 44.7186 52.6077 44.4924 52.894C44.2662 53.1803 43.9478 53.3235 43.5373 53.3235C43.191 53.3235 42.9187 53.2317 42.7204 53.048C42.5249 52.8643 42.4272 52.632 42.4272 52.351ZM50.043 53.2344V52.8535H50.9478V48.056H50.043V47.6751C50.258 47.6913 50.7579 47.6994 51.5427 47.6994C52.3302 47.6994 52.8301 47.6913 53.0424 47.6751V48.056H52.1375V50.6492L55.2416 48.1451C55.2193 48.1397 55.2067 48.1343 55.2039 48.1289C55.2039 48.1181 55.1788 48.1073 55.1285 48.0965C54.9889 48.0722 54.8269 48.0587 54.6426 48.056V47.6751C54.8437 47.6913 55.2514 47.6994 55.8658 47.6994C56.2121 47.6994 56.497 47.6913 56.7204 47.6751V48.056H56.578C56.1758 48.056 55.9133 48.1046 55.7904 48.2019L53.7796 49.8226L56.0418 52.6914C56.0976 52.7643 56.1535 52.8089 56.2093 52.8251C56.268 52.844 56.4034 52.8535 56.6157 52.8535H56.8544V53.2344C56.6478 53.2182 56.24 53.21 55.6312 53.21C54.88 53.21 54.3885 53.2182 54.1567 53.2344V52.8535C54.4639 52.8535 54.6677 52.8319 54.7683 52.7886C54.7431 52.7265 54.7222 52.6887 54.7054 52.6752L52.9795 50.479L52.1375 51.1517V52.8535H53.0424V53.2344C52.8301 53.2182 52.3302 53.21 51.5427 53.21C50.7579 53.21 50.258 53.2182 50.043 53.2344ZM57.6085 53.2344V52.8535H57.7844C58.0749 52.8535 58.2592 52.84 58.3374 52.813C58.4156 52.786 58.4686 52.7373 58.4966 52.6671L60.5744 47.7886C60.5967 47.7291 60.6162 47.6873 60.633 47.6629C60.6497 47.6386 60.6791 47.6184 60.721 47.6022C60.7629 47.586 60.8229 47.5779 60.9011 47.5779C60.9653 47.5779 61.01 47.5806 61.0351 47.586C61.0631 47.5914 61.0966 47.6103 61.1357 47.6427C61.1776 47.6751 61.2111 47.7237 61.2362 47.7886L63.381 52.8535H64.1937V53.2344C63.9982 53.2182 63.543 53.21 62.8281 53.21C62.0573 53.21 61.5658 53.2182 61.3535 53.2344V52.8535H62.1494L61.6468 51.6703H59.4014L58.9825 52.6509C58.9601 52.6725 58.949 52.7049 58.949 52.7481C58.949 52.8184 59.1975 52.8535 59.6946 52.8535V53.2344C59.488 53.2182 59.1193 53.21 58.5887 53.21C58.572 53.21 58.2452 53.2182 57.6085 53.2344ZM60.5241 49.0366L59.569 51.2894H61.4792L60.5241 49.0366ZM68.2865 50.4872C68.2865 49.6227 68.5644 48.9231 69.1201 48.3882C69.6759 47.8534 70.4257 47.586 71.3696 47.586C72.2968 47.586 73.0411 47.8507 73.6024 48.3802C74.1638 48.9096 74.4445 49.6119 74.4445 50.4872C74.4445 51.33 74.168 52.0134 73.615 52.5374C73.0621 53.0615 72.3108 53.3235 71.3613 53.3235C70.4229 53.3235 69.6759 53.0642 69.1201 52.5455C68.5644 52.0242 68.2865 51.3381 68.2865 50.4872ZM69.5683 50.3656C69.5683 51.1328 69.6828 51.7244 69.9118 52.1404C70.071 52.4294 70.2833 52.6428 70.5486 52.7806C70.8167 52.9156 71.0876 52.9832 71.3613 52.9832C71.9757 52.9832 72.4476 52.7265 72.7772 52.2133C73.0341 51.8027 73.1626 51.1868 73.1626 50.3656C73.1626 49.62 73.0453 49.0555 72.8107 48.6719C72.6487 48.418 72.4379 48.2275 72.1781 48.1006C71.9184 47.9736 71.6461 47.9101 71.3613 47.9101C71.096 47.9101 70.8363 47.9682 70.5821 48.0844C70.3308 48.2005 70.1241 48.3748 69.9621 48.6071C69.6996 49.0014 69.5683 49.5876 69.5683 50.3656ZM75.2655 53.2344V52.8535H75.5085C75.6788 52.8535 75.8492 52.8454 76.0196 52.8292C76.148 52.8184 76.2304 52.8049 76.2667 52.7886C76.303 52.7724 76.3407 52.74 76.3798 52.6914L78.0722 50.5439L76.2122 48.056H75.387V47.6751C75.5853 47.6913 76.0377 47.6994 76.7442 47.6994C77.529 47.6994 78.0359 47.6913 78.2649 47.6751V48.056H77.5695L78.7676 49.6525L79.8735 48.2343C79.8763 48.2289 79.8861 48.214 79.9028 48.1897C79.9196 48.1654 79.9308 48.1505 79.9363 48.1451C79.7409 48.0857 79.4853 48.056 79.1698 48.056V47.6751C79.3708 47.6913 79.7939 47.6994 80.4391 47.6994C80.9529 47.6994 81.3286 47.6913 81.5659 47.6751V48.056H81.3188C81.1289 48.056 80.9683 48.0641 80.837 48.0803C80.6918 48.0884 80.601 48.1006 80.5647 48.1168C80.5284 48.1303 80.4865 48.1667 80.4391 48.2262L79.0315 50.0171L81.1512 52.8535H81.9723V53.2344C81.7768 53.2182 81.3243 53.21 80.615 53.21C79.833 53.21 79.3289 53.2182 79.1027 53.2344V52.8535H79.7981L78.3361 50.9005L76.9537 52.6752C76.9481 52.6806 76.937 52.6955 76.9202 52.7198C76.9062 52.7441 76.8965 52.7589 76.8909 52.7643C77.0864 52.8238 77.3419 52.8535 77.6575 52.8535V53.2344C77.4564 53.2182 77.0333 53.21 76.3882 53.21C75.8743 53.21 75.5001 53.2182 75.2655 53.2344ZM82.7933 50.4872C82.7933 49.6227 83.0712 48.9231 83.627 48.3882C84.1827 47.8534 84.9326 47.586 85.8765 47.586C86.8037 47.586 87.5479 47.8507 88.1093 48.3802C88.6706 48.9096 88.9513 49.6119 88.9513 50.4872C88.9513 51.33 88.6748 52.0134 88.1218 52.5374C87.5689 53.0615 86.8176 53.3235 85.8681 53.3235C84.9298 53.3235 84.1827 53.0642 83.627 52.5455C83.0712 52.0242 82.7933 51.3381 82.7933 50.4872ZM84.071 50.3656C84.071 51.1328 84.1855 51.7244 84.4145 52.1404C84.5765 52.4294 84.7901 52.6428 85.0554 52.7806C85.3235 52.9156 85.5944 52.9832 85.8681 52.9832C86.4825 52.9832 86.9545 52.7265 87.284 52.2133C87.5409 51.8027 87.6694 51.1868 87.6694 50.3656C87.6694 49.62 87.5521 49.0555 87.3175 48.6719C87.1555 48.418 86.9447 48.2275 86.685 48.1006C86.4253 47.9736 86.153 47.9101 85.8681 47.9101C85.6 47.9101 85.3403 47.9682 85.0889 48.0844C84.8376 48.2005 84.631 48.3748 84.469 48.6071C84.2037 49.0014 84.071 49.5876 84.071 50.3656ZM90.229 49.6363H89.8268L90.0028 47.6751H95.6497L95.834 49.6363H95.4318C95.4067 49.3121 95.3704 49.0622 95.3229 48.8866C95.2782 48.7111 95.2028 48.5544 95.0967 48.4166C94.9906 48.2788 94.8467 48.1857 94.6652 48.137C94.4837 48.0884 94.2435 48.0641 93.9447 48.0641H93.4336V52.8454H94.7155V53.2344C94.0536 53.2182 93.3917 53.21 92.7299 53.21C92.431 53.21 91.8376 53.2182 90.9495 53.2344V52.8454H92.2356V48.0641H91.7245C91.543 48.0641 91.3963 48.0695 91.2846 48.0803C91.1729 48.0911 91.0403 48.1262 90.8867 48.1857C90.7358 48.2451 90.6158 48.3342 90.5264 48.4531C90.3923 48.6206 90.2932 49.015 90.229 49.6363ZM96.5294 53.2344V52.8535H96.7053C96.9958 52.8535 97.1801 52.84 97.2583 52.813C97.3365 52.786 97.3895 52.7373 97.4175 52.6671L99.4952 47.7886C99.5176 47.7291 99.5371 47.6873 99.5539 47.6629C99.5707 47.6386 99.6 47.6184 99.6419 47.6022C99.6838 47.586 99.7438 47.5779 99.822 47.5779C99.8862 47.5779 99.9309 47.5806 99.956 47.586C99.984 47.5914 100.017 47.6103 100.057 47.6427C100.098 47.6751 100.132 47.7237 100.157 47.7886L102.302 52.8535H103.115V53.2344C102.919 53.2182 102.464 53.21 101.749 53.21C100.978 53.21 100.487 53.2182 100.274 53.2344V52.8535H101.07L100.568 51.6703H98.3223L97.9034 52.6509C97.881 52.6725 97.8699 52.7049 97.8699 52.7481C97.8699 52.8184 98.1184 52.8535 98.6155 52.8535V53.2344C98.4089 53.2182 98.0403 53.21 97.5096 53.21C97.4929 53.21 97.1661 53.2182 96.5294 53.2344ZM99.445 49.0366L98.4899 51.2894H100.4L99.445 49.0366ZM106.998 53.2344V52.8454H107.903V48.0641H106.998V47.6751C107.506 47.6913 108.017 47.6994 108.531 47.6994C109.023 47.6994 109.514 47.6913 110.006 47.6751V48.0641H109.092V51.5893L109.101 52.1079L111.782 48.0641H110.885V47.6751C111.391 47.6913 111.902 47.6994 112.419 47.6994C112.91 47.6994 113.402 47.6913 113.893 47.6751V48.0641H112.988V52.8454H113.893V53.2344C113.379 53.2182 112.868 53.21 112.36 53.21C111.877 53.21 111.385 53.2182 110.885 53.2344V52.8454H111.79V48.8016L109.109 52.8454H110.006V53.2344C109.492 53.2182 108.981 53.21 108.472 53.21C107.987 53.21 107.495 53.2182 106.998 53.2344ZM118.874 52.5212C118.265 51.9864 117.961 51.2975 117.961 50.4547C117.961 49.6119 118.267 48.9231 118.878 48.3882C119.487 47.8534 120.304 47.586 121.329 47.586C121.96 47.586 122.512 47.7696 122.984 48.137L123.532 47.6589C123.588 47.6103 123.641 47.586 123.691 47.586C123.761 47.586 123.805 47.6008 123.821 47.6305C123.838 47.6603 123.846 47.721 123.846 47.8129V49.5552C123.846 49.6633 123.834 49.7281 123.809 49.7497C123.786 49.7713 123.722 49.7821 123.616 49.7821C123.521 49.7821 123.462 49.774 123.44 49.7578C123.418 49.7416 123.401 49.693 123.39 49.6119C123.3 49.1122 123.08 48.7138 122.728 48.4166C122.376 48.1168 121.968 47.9669 121.505 47.9669C120.79 47.9669 120.222 48.1749 119.8 48.5909C119.431 48.9609 119.245 49.5822 119.243 50.4547C119.243 51.2651 119.407 51.8648 119.737 52.2538C120.139 52.713 120.738 52.9426 121.534 52.9426C122.009 52.9426 122.439 52.8049 122.824 52.5293C123.213 52.2538 123.422 51.8648 123.453 51.3624C123.458 51.2975 123.475 51.2584 123.503 51.2449C123.528 51.2314 123.576 51.2246 123.645 51.2246C123.724 51.2246 123.777 51.2341 123.805 51.253C123.833 51.2719 123.846 51.3192 123.846 51.3948C123.846 51.8891 123.613 52.3348 123.147 52.7319C122.681 53.1263 122.074 53.3235 121.329 53.3235C120.301 53.3235 119.483 53.0561 118.874 52.5212ZM125.12 49.6363H124.722L124.898 47.6751H130.541L130.725 49.6363H130.323C130.298 49.3121 130.263 49.0622 130.218 48.8866C130.171 48.7111 130.094 48.5544 129.988 48.4166C129.882 48.2788 129.738 48.1857 129.556 48.137C129.375 48.0884 129.135 48.0641 128.836 48.0641H128.325V52.8454H129.607V53.2344C128.945 53.2182 128.283 53.21 127.621 53.21C127.325 53.21 126.731 53.2182 125.84 53.2344V52.8454H127.127V48.0641H126.615C126.434 48.0641 126.287 48.0695 126.176 48.0803C126.064 48.0911 125.933 48.1262 125.782 48.1857C125.628 48.2451 125.507 48.3342 125.417 48.4531C125.283 48.6206 125.184 49.015 125.12 49.6363ZM131.404 53.2344V52.8535H132.308V48.056H131.404V47.6751H134.897C135.579 47.6751 136.119 47.8237 136.519 48.1208C136.921 48.418 137.122 48.7961 137.122 49.2554C137.122 49.7146 136.916 50.0847 136.506 50.3656C136.095 50.6465 135.587 50.787 134.981 50.787H133.498V52.8535H134.403V53.2344C134.191 53.2182 133.691 53.21 132.903 53.21C132.116 53.21 131.616 53.2182 131.404 53.2344ZM133.452 48.056V50.4547H134.571C134.744 50.4547 134.899 50.4412 135.036 50.4142C135.172 50.3872 135.286 50.3561 135.375 50.321C135.464 50.2859 135.54 50.2332 135.601 50.163C135.663 50.0928 135.709 50.0293 135.739 49.9726C135.77 49.9158 135.792 49.8389 135.806 49.7416C135.82 49.6444 135.829 49.566 135.831 49.5066C135.834 49.4472 135.836 49.3634 135.836 49.2554C135.836 49.1257 135.833 49.0271 135.827 48.9596C135.822 48.892 135.809 48.8029 135.79 48.6921C135.77 48.5814 135.734 48.495 135.681 48.4328C135.628 48.3707 135.556 48.3072 135.467 48.2424C135.378 48.1776 135.258 48.1303 135.107 48.1006C134.956 48.0709 134.78 48.056 134.579 48.056H133.452ZM143.33 53.2344H137.989V52.8454H138.89V48.0641H137.989V47.6751H143.2L143.447 49.6363H143.058C143.013 49.3013 142.952 49.0312 142.873 48.8259C142.792 48.6206 142.658 48.4504 142.471 48.3153C142.326 48.2127 142.154 48.1451 141.956 48.1127C141.758 48.0803 141.492 48.0641 141.16 48.0641H140.083V50.1549H140.498C140.649 50.1549 140.772 50.1482 140.867 50.1346C140.962 50.1211 141.065 50.0766 141.177 50.0009C141.288 49.9253 141.361 49.8145 141.395 49.6687C141.417 49.5876 141.43 49.4337 141.432 49.2068H141.834V51.492H141.432C141.432 51.122 141.368 50.8708 141.24 50.7384C141.114 50.6087 140.867 50.5439 140.498 50.5439H140.083V52.8454H141.369C141.668 52.84 141.92 52.8103 142.124 52.7563C142.33 52.7022 142.501 52.632 142.635 52.5455C142.771 52.4591 142.883 52.3335 142.97 52.1687C143.053 52.0039 143.119 51.8378 143.167 51.6703C143.214 51.5029 143.263 51.2813 143.313 51.0058H143.72L143.33 53.2344ZM144.243 52.351C144.243 52.1565 144.307 52.0012 144.436 51.8851C144.567 51.7689 144.718 51.7108 144.888 51.7108C145.067 51.7108 145.218 51.7676 145.341 51.881C145.464 51.9945 145.525 52.1431 145.525 52.3267C145.525 52.5807 145.395 52.7751 145.135 52.9102C145.283 52.9264 145.36 52.9345 145.366 52.9345C145.528 52.9345 145.666 52.9021 145.781 52.8373C145.895 52.7724 146.007 52.6414 146.116 52.4443C146.225 52.2471 146.311 51.9729 146.375 51.6217C146.44 51.2705 146.491 50.7978 146.53 50.2035C146.57 49.6092 146.589 48.8961 146.589 48.0641H145.647V47.6751H151.197V48.0641H150.292V52.8454H151.197V53.2344C150.689 53.2182 150.179 53.2101 149.668 53.2101C149.177 53.2101 148.684 53.2182 148.189 53.2344V52.8454H149.103V48.0641H146.991C146.991 49.4742 146.934 50.5601 146.819 51.3219C146.705 52.0836 146.535 52.6077 146.308 52.894C146.082 53.1803 145.762 53.3235 145.349 53.3235C145.003 53.3235 144.732 53.2317 144.536 53.048C144.341 52.8643 144.243 52.632 144.243 52.351ZM151.859 53.2344V52.8535H152.764V48.056H151.859V47.6751C152.071 47.6913 152.571 47.6994 153.359 47.6994C154.146 47.6994 154.646 47.6913 154.858 47.6751V48.056H153.954V50.6492L157.053 48.1451C157.034 48.1397 157.023 48.1343 157.02 48.1289C157.02 48.1181 156.995 48.1073 156.945 48.0965C156.805 48.0722 156.643 48.0587 156.459 48.056V47.6751C156.66 47.6913 157.067 47.6994 157.682 47.6994C158.028 47.6994 158.313 47.6913 158.536 47.6751V48.056H158.394C157.992 48.056 157.729 48.1046 157.606 48.2019L155.596 49.8226L157.858 52.6914C157.911 52.7643 157.967 52.8089 158.025 52.8251C158.081 52.844 158.215 52.8535 158.427 52.8535H158.67V53.2344C158.464 53.2182 158.056 53.21 157.447 53.21C156.696 53.21 156.204 53.2182 155.973 53.2344V52.8535C156.28 52.8535 156.484 52.8319 156.584 52.7886C156.556 52.7265 156.534 52.6887 156.517 52.6752L154.791 50.479L153.954 51.1517V52.8535H154.858V53.2344C154.646 53.2182 154.146 53.21 153.359 53.21C152.571 53.21 152.071 53.2182 151.859 53.2344ZM159.617 50.4872C159.617 49.6227 159.895 48.9231 160.451 48.3882C161.007 47.8534 161.756 47.586 162.7 47.586C163.628 47.586 164.372 47.8507 164.933 48.3802C165.492 48.9096 165.771 49.6119 165.771 50.4872C165.771 51.33 165.496 52.0134 164.946 52.5374C164.393 53.0615 163.642 53.3235 162.692 53.3235C161.754 53.3235 161.007 53.0642 160.451 52.5455C159.895 52.0242 159.617 51.3381 159.617 50.4872ZM160.895 50.3656C160.895 51.1328 161.009 51.7244 161.238 52.1404C161.4 52.4294 161.614 52.6428 161.879 52.7806C162.145 52.9156 162.415 52.9832 162.692 52.9832C163.306 52.9832 163.778 52.7265 164.108 52.2133C164.365 51.8027 164.493 51.1868 164.493 50.3656C164.493 49.62 164.376 49.0555 164.141 48.6719C163.979 48.418 163.769 48.2275 163.509 48.1006C163.249 47.9736 162.977 47.9101 162.692 47.9101C162.424 47.9101 162.164 47.9682 161.913 48.0844C161.661 48.2005 161.455 48.3748 161.293 48.6071C161.027 49.0014 160.895 49.5876 160.895 50.3656ZM170.521 53.2344H166.634V52.8535H167.539V48.056H166.634V47.6751H170.274C170.922 47.6751 171.43 47.8088 171.799 48.0763C172.168 48.3437 172.352 48.6746 172.352 49.069C172.352 49.3823 172.222 49.6525 171.962 49.8794C171.706 50.1063 171.351 50.2575 170.898 50.3332C171.401 50.371 171.813 50.5169 172.134 50.7708C172.455 51.0247 172.616 51.3435 172.616 51.727C172.616 52.1484 172.433 52.505 172.067 52.7967C171.701 53.0885 171.186 53.2344 170.521 53.2344ZM168.636 50.4872V52.8535H170.178C170.371 52.8535 170.54 52.8292 170.685 52.7806C170.833 52.7319 170.947 52.6644 171.028 52.578C171.112 52.4915 171.18 52.4078 171.234 52.3267C171.287 52.2457 171.322 52.1552 171.338 52.0553C171.358 51.9553 171.37 51.8837 171.376 51.8405C171.382 51.7973 171.384 51.7568 171.384 51.7189C171.384 51.357 171.294 51.0625 171.112 50.8356C170.919 50.6033 170.637 50.4872 170.266 50.4872L168.636 50.4872ZM168.636 48.056V50.1954H169.943C170.334 50.1954 170.635 50.0901 170.844 49.8794C171.056 49.6687 171.162 49.3985 171.162 49.069C171.162 48.9609 171.147 48.8542 171.116 48.7489C171.088 48.6435 171.042 48.5355 170.978 48.4247C170.914 48.314 170.812 48.2248 170.672 48.1573C170.535 48.0898 170.365 48.056 170.161 48.056H168.636ZM177.199 53.2344H173.487V52.8454H174.392V48.0641H173.487V47.6751C173.99 47.6913 174.494 47.6994 175 47.6994H175.029C175.42 47.6994 175.878 47.6913 176.403 47.6751V48.0641H175.498V50.1225C176.034 50.0198 176.573 49.9685 177.115 49.9685C177.565 49.9685 177.95 50.0212 178.271 50.1265C178.595 50.2319 178.84 50.3723 179.004 50.5479C179.169 50.7235 179.288 50.8991 179.36 51.0747C179.433 51.2503 179.469 51.4299 179.469 51.6136C179.469 51.773 179.441 51.9337 179.386 52.0958C179.33 52.2551 179.239 52.4172 179.113 52.582C178.988 52.7468 178.8 52.8873 178.552 53.0034C178.303 53.1196 178.009 53.1911 177.668 53.2182C177.567 53.229 177.411 53.2344 177.199 53.2344ZM175.498 50.5115V52.8454H177.023C177.442 52.8454 177.741 52.7211 177.919 52.4726C178.098 52.2241 178.187 51.9405 178.187 51.6217C178.187 51.4812 178.166 51.3448 178.125 51.2125C178.083 51.0801 178.016 50.9504 177.924 50.8235C177.831 50.6965 177.693 50.5939 177.509 50.5155C177.324 50.4372 177.104 50.398 176.847 50.398C176.45 50.398 176.001 50.4358 175.498 50.5115ZM179.189 53.2344V52.8454H180.098V48.0641H179.189V47.6751C179.694 47.6913 180.204 47.6994 180.718 47.6994C180.813 47.6994 181.304 47.6913 182.192 47.6751V48.0641H181.287V52.8454H182.192V53.2344C181.704 53.2182 181.212 53.21 180.718 53.21C180.204 53.21 179.694 53.2182 179.189 53.2344ZM182.913 53.2344V52.8454H183.818V48.0641H182.913V47.6751C183.421 47.6913 183.932 47.6994 184.446 47.6994C184.937 47.6994 185.429 47.6913 185.921 47.6751V48.0641H185.007V51.5893L185.016 52.1079L187.697 48.0641H186.8V47.6751C187.309 47.6913 187.82 47.6994 188.333 47.6994C188.825 47.6994 189.316 47.6913 189.808 47.6751V48.0641H188.903V52.8454H189.808V53.2344C189.294 53.2182 188.783 53.21 188.275 53.21C187.792 53.21 187.3 53.2182 186.8 53.2344V52.8454H187.705V48.8016L185.024 52.8454H185.921V53.2344C185.407 53.2182 184.896 53.21 184.387 53.21C183.901 53.21 183.41 53.2182 182.913 53.2344ZM184.815 46.3056C184.815 46.1408 184.876 45.999 184.999 45.8801C185.122 45.7639 185.264 45.7059 185.426 45.7059C185.597 45.7059 185.74 45.7639 185.858 45.8801C185.972 45.9963 186.029 46.1327 186.029 46.2893C186.029 46.5163 185.918 46.6918 185.694 46.8161C185.929 46.8539 186.148 46.8728 186.352 46.8728C186.648 46.8728 186.873 46.8539 187.026 46.8161C186.803 46.6918 186.693 46.5163 186.696 46.2893C186.696 46.13 186.756 45.9922 186.876 45.8761C186.993 45.7626 187.133 45.7059 187.295 45.7059C187.457 45.7059 187.598 45.7599 187.718 45.8679C187.838 45.976 187.898 46.1192 187.898 46.2975C187.898 46.5946 187.751 46.835 187.458 47.0187C187.165 47.2024 186.8 47.2942 186.365 47.2942C185.929 47.2942 185.562 47.2024 185.263 47.0187C184.964 46.835 184.815 46.5973 184.815 46.3056ZM194.789 52.5212C194.18 51.9864 193.876 51.2975 193.876 50.4547C193.876 49.6119 194.181 48.9231 194.793 48.3882C195.402 47.8534 196.219 47.586 197.244 47.586C197.875 47.586 198.426 47.7696 198.898 48.137L199.447 47.6589C199.503 47.6103 199.557 47.586 199.611 47.586C199.678 47.586 199.719 47.6008 199.736 47.6305C199.753 47.6603 199.761 47.721 199.761 47.8129V49.5552C199.761 49.6633 199.749 49.7281 199.724 49.7497C199.701 49.7713 199.637 49.7821 199.531 49.7821C199.436 49.7821 199.377 49.774 199.355 49.7578C199.333 49.7416 199.316 49.693 199.305 49.6119C199.215 49.1122 198.995 48.7138 198.643 48.4166C198.291 48.1168 197.883 47.9669 197.42 47.9669C196.705 47.9669 196.136 48.1749 195.715 48.5909C195.346 48.9609 195.16 49.5822 195.157 50.4547C195.157 51.2651 195.322 51.8648 195.652 52.2538C196.054 52.713 196.653 52.9426 197.449 52.9426C197.924 52.9426 198.355 52.8049 198.743 52.5293C199.129 52.2538 199.337 51.8648 199.368 51.3624C199.373 51.2975 199.39 51.2584 199.418 51.2449C199.443 51.2314 199.49 51.2246 199.56 51.2246C199.638 51.2246 199.691 51.2341 199.719 51.253C199.747 51.2719 199.761 51.3192 199.761 51.3948C199.761 51.8891 199.528 52.3348 199.062 52.7319C198.595 53.1263 197.989 53.3235 197.244 53.3235C196.216 53.3235 195.398 53.0561 194.789 52.5212ZM200.62 53.2344V52.8454H201.525V48.0641H200.62V47.6751H207.511V48.0641H206.606V52.8454H207.511V53.2344C207 53.2182 206.49 53.21 205.982 53.21C205.496 53.21 205.003 53.2182 204.503 53.2344V52.8454H205.408V48.0641H202.715V52.8454H203.628V53.2344C203.114 53.2182 202.601 53.21 202.09 53.21C201.604 53.21 201.114 53.2182 200.62 53.2344ZM208.374 50.4872C208.374 49.6227 208.653 48.9231 209.212 48.3882C209.768 47.8534 210.518 47.586 211.461 47.586C212.389 47.586 213.131 47.8507 213.69 48.3802C214.251 48.9096 214.532 49.6119 214.532 50.4872C214.532 51.33 214.256 52.0134 213.703 52.5374C213.152 53.0615 212.403 53.3235 211.453 53.3235C210.515 53.3235 209.768 53.0642 209.212 52.5455C208.653 52.0242 208.374 51.3381 208.374 50.4872ZM209.656 50.3656C209.656 51.1328 209.77 51.7244 209.999 52.1404C210.161 52.4294 210.375 52.6428 210.64 52.7806C210.906 52.9156 211.177 52.9832 211.453 52.9832C212.065 52.9832 212.537 52.7265 212.869 52.2133C213.123 51.8027 213.25 51.1868 213.25 50.3656C213.25 49.62 213.133 49.0555 212.898 48.6719C212.739 48.418 212.53 48.2275 212.27 48.1006C212.007 47.9736 211.735 47.9101 211.453 47.9101C211.185 47.9101 210.925 47.9682 210.674 48.0844C210.42 48.2005 210.213 48.3748 210.054 48.6071C209.789 49.0014 209.656 49.5876 209.656 50.3656ZM215.395 53.2344V52.8535H216.3V48.056H215.395V47.6751H218.889C219.57 47.6751 220.111 47.8237 220.51 48.1208C220.909 48.418 221.109 48.7961 221.109 49.2554C221.109 49.7146 220.904 50.0847 220.493 50.3656C220.083 50.6465 219.576 50.787 218.972 50.787H217.49V52.8535H218.394V53.2344C218.182 53.2182 217.682 53.21 216.895 53.21C216.107 53.21 215.607 53.2182 215.395 53.2344ZM217.439 48.056V50.4547H218.562C218.732 50.4547 218.887 50.4412 219.027 50.4142C219.164 50.3872 219.277 50.3561 219.366 50.321C219.456 50.2859 219.531 50.2332 219.592 50.163C219.654 50.0928 219.7 50.0293 219.731 49.9726C219.761 49.9158 219.784 49.8389 219.798 49.7416C219.812 49.6444 219.82 49.566 219.823 49.5066C219.826 49.4472 219.827 49.3634 219.827 49.2554C219.827 49.1257 219.824 49.0271 219.819 48.9596C219.813 48.892 219.801 48.8029 219.781 48.6921C219.761 48.5814 219.725 48.495 219.672 48.4328C219.619 48.3707 219.548 48.3072 219.458 48.2424C219.369 48.1776 219.249 48.1303 219.098 48.1006C218.947 48.0709 218.771 48.056 218.57 48.056H217.439ZM222.395 49.6363H221.993L222.169 47.6751H227.816L228 49.6363H227.598C227.57 49.3121 227.534 49.0622 227.489 48.8866C227.444 48.7111 227.369 48.5544 227.263 48.4166C227.157 48.2788 227.013 48.1857 226.831 48.137C226.65 48.0884 226.41 48.0641 226.111 48.0641H225.6V52.8454H226.877V53.2344C226.218 53.2182 225.558 53.21 224.896 53.21C224.597 53.21 224.004 53.2182 223.116 53.2344V52.8454H224.402V48.0641H223.886C223.708 48.0641 223.562 48.0695 223.451 48.0803C223.339 48.0911 223.206 48.1262 223.053 48.1857C222.902 48.2451 222.78 48.3342 222.688 48.4531C222.554 48.6206 222.456 49.015 222.395 49.6363Z" fill="#133115"/>
<path d="M86.488 31.618C86.488 30.1793 86.1413 29.1047 85.448 28.394C84.7547 27.666 83.6887 27.302 82.25 27.302C82.0247 27.302 81.7907 27.302 81.548 27.302C81.3227 27.2847 81.0887 27.276 80.846 27.276C80.2567 27.276 79.6587 27.2933 79.052 27.328C78.4453 27.3453 77.8387 27.3713 77.232 27.406V35.284C77.232 35.596 77.3447 35.83 77.57 35.986C77.7953 36.1247 78.0553 36.2113 78.35 36.246C78.6447 36.2807 78.9047 36.298 79.13 36.298C79.4767 36.298 79.8233 36.298 80.17 36.298C80.5167 36.2807 80.8633 36.2633 81.21 36.246C82.1807 36.194 83.0647 36.012 83.862 35.7C84.6593 35.3707 85.292 34.8767 85.76 34.218C86.2453 33.542 86.488 32.6753 86.488 31.618ZM89.218 31.228C89.218 32.4933 88.906 33.5767 88.282 34.478C87.658 35.362 86.7567 36.0293 85.578 36.48C84.85 36.7573 84.044 36.922 83.16 36.974C82.276 37.0087 81.4527 37.026 80.69 37.026C79.858 37.026 79.026 37.0173 78.194 37C77.362 36.9653 76.53 36.948 75.698 36.948C75.178 36.948 74.6493 36.9653 74.112 37C73.592 37.0173 73.072 37.026 72.552 37.026C72.292 37.026 72.162 36.8873 72.162 36.61C72.162 36.5407 72.1793 36.4627 72.214 36.376C72.2487 36.272 72.3007 36.22 72.37 36.22C72.6127 36.22 72.8553 36.22 73.098 36.22C73.3407 36.2027 73.5747 36.168 73.8 36.116C74.1987 36.0293 74.4587 35.8907 74.58 35.7C74.7013 35.492 74.7793 35.1973 74.814 34.816C74.8487 34.452 74.866 34.088 74.866 33.724C74.866 33.36 74.866 33.0047 74.866 32.658C74.866 30.5607 74.8573 28.472 74.84 26.392C74.84 24.2947 74.84 22.206 74.84 20.126C74.84 19.8487 74.7967 19.606 74.71 19.398C74.6233 19.19 74.4413 19.034 74.164 18.93C73.9907 18.8433 73.748 18.8 73.436 18.8C73.1413 18.8 72.8987 18.8 72.708 18.8C72.4133 18.8 72.266 18.6613 72.266 18.384C72.266 18.3147 72.2833 18.2193 72.318 18.098C72.37 17.9767 72.4393 17.916 72.526 17.916C72.7513 17.916 72.968 17.9247 73.176 17.942C73.4013 17.9593 73.6267 17.968 73.852 17.968C74.8747 17.968 75.8973 17.9767 76.92 17.994C77.9427 18.0113 78.9567 18.02 79.962 18.02C80.6553 18.02 81.3487 18.0113 82.042 17.994C82.7353 17.9767 83.4287 17.9593 84.122 17.942C84.5553 17.9247 84.98 17.9073 85.396 17.89C85.812 17.8553 86.2367 17.838 86.67 17.838C86.7567 17.838 86.8087 17.8727 86.826 17.942C86.8607 18.0113 86.9127 18.228 86.982 18.592C87.0513 18.956 87.1207 19.3633 87.19 19.814C87.2767 20.2647 87.346 20.672 87.398 21.036C87.4673 21.4 87.502 21.6253 87.502 21.712C87.502 21.8507 87.45 21.972 87.346 22.076C87.242 22.1627 87.1207 22.206 86.982 22.206C86.826 22.206 86.722 22.1193 86.67 21.946C86.4447 21.2873 86.202 20.75 85.942 20.334C85.682 19.918 85.1967 19.5713 84.486 19.294C84.122 19.1553 83.654 19.0513 83.082 18.982C82.5273 18.9127 81.964 18.8693 81.392 18.852C80.82 18.8347 80.326 18.826 79.91 18.826C79.7887 18.826 79.546 18.826 79.182 18.826C78.8353 18.826 78.4887 18.8347 78.142 18.852C77.8127 18.852 77.6133 18.8693 77.544 18.904C77.4573 18.9387 77.3793 18.982 77.31 19.034C77.258 19.086 77.232 19.1727 77.232 19.294V26.548C77.9947 26.5133 78.766 26.4873 79.546 26.47C80.326 26.4527 81.0973 26.444 81.86 26.444C82.4147 26.444 82.9607 26.4527 83.498 26.47C84.0353 26.4873 84.564 26.5567 85.084 26.678C85.8467 26.8513 86.54 27.146 87.164 27.562C87.788 27.9607 88.282 28.472 88.646 29.096C89.0273 29.7027 89.218 30.4133 89.218 31.228ZM107.782 27.406C107.782 26.366 107.661 25.326 107.418 24.286C107.193 23.246 106.82 22.3013 106.3 21.452C105.797 20.6027 105.121 19.9267 104.272 19.424C103.44 18.904 102.409 18.644 101.178 18.644C99.982 18.644 98.9593 18.9127 98.11 19.45C97.2607 19.9873 96.5673 20.698 96.03 21.582C95.4927 22.4487 95.094 23.4107 94.834 24.468C94.5913 25.508 94.47 26.5393 94.47 27.562C94.47 28.6193 94.5913 29.6593 94.834 30.682C95.0767 31.7047 95.458 32.632 95.978 33.464C96.5153 34.2787 97.2087 34.9373 98.058 35.44C98.9247 35.9253 99.9647 36.168 101.178 36.168C102.409 36.168 103.44 35.9167 104.272 35.414C105.121 34.894 105.797 34.2093 106.3 33.36C106.82 32.5107 107.193 31.566 107.418 30.526C107.661 29.486 107.782 28.446 107.782 27.406ZM110.616 27.354C110.616 29.33 110.243 31.046 109.498 32.502C108.77 33.958 107.704 35.0933 106.3 35.908C104.896 36.7053 103.189 37.104 101.178 37.104C99.2193 37.104 97.538 36.714 96.134 35.934C94.7473 35.1367 93.6813 34.0273 92.936 32.606C92.208 31.1673 91.844 29.486 91.844 27.562C91.844 26.1927 92.0607 24.9187 92.494 23.74C92.9447 22.544 93.5773 21.504 94.392 20.62C95.224 19.7187 96.212 19.0167 97.356 18.514C98.5 18.0113 99.774 17.76 101.178 17.76C103.154 17.76 104.844 18.1587 106.248 18.956C107.652 19.736 108.727 20.8453 109.472 22.284C110.235 23.7053 110.616 25.3953 110.616 27.354ZM130.844 32.19C130.844 32.3113 130.783 32.4587 130.662 32.632C130.558 32.788 130.471 32.918 130.402 33.022C129.414 34.5473 128.253 35.622 126.918 36.246C125.601 36.8527 124.041 37.156 122.238 37.156C120.314 37.156 118.633 36.766 117.194 35.986C115.773 35.206 114.672 34.1053 113.892 32.684C113.112 31.2627 112.722 29.59 112.722 27.666C112.722 25.742 113.103 24.026 113.866 22.518C114.629 21.01 115.721 19.8227 117.142 18.956C118.563 18.0893 120.262 17.656 122.238 17.656C123.001 17.656 123.737 17.7773 124.448 18.02C125.176 18.2453 125.913 18.462 126.658 18.67C127.057 18.774 127.447 18.852 127.828 18.904C128.227 18.9387 128.617 18.956 128.998 18.956C129.067 19.5453 129.128 20.1433 129.18 20.75C129.249 21.3567 129.327 21.9633 129.414 22.57C129.449 22.7953 129.492 23.0207 129.544 23.246C129.596 23.4713 129.622 23.7053 129.622 23.948C129.622 24.208 129.535 24.3987 129.362 24.52C129.189 24.624 128.989 24.676 128.764 24.676C128.591 24.676 128.452 24.5893 128.348 24.416C128.244 24.2253 128.166 24.0173 128.114 23.792C128.062 23.5667 128.019 23.3933 127.984 23.272C127.62 21.8333 126.97 20.6807 126.034 19.814C125.115 18.93 123.885 18.488 122.342 18.488C121.753 18.488 121.146 18.592 120.522 18.8C119.915 18.9907 119.378 19.2593 118.91 19.606C118.095 20.1953 117.428 20.9233 116.908 21.79C116.405 22.6567 116.041 23.584 115.816 24.572C115.591 25.56 115.478 26.548 115.478 27.536C115.478 28.2293 115.547 28.9487 115.686 29.694C115.842 30.422 116.05 31.1067 116.31 31.748C116.917 33.1867 117.783 34.2613 118.91 34.972C120.037 35.6827 121.371 36.038 122.914 36.038C124.249 36.038 125.445 35.752 126.502 35.18C127.577 34.5907 128.521 33.7673 129.336 32.71C129.423 32.5713 129.509 32.4327 129.596 32.294C129.7 32.1553 129.804 32.0253 129.908 31.904C129.977 31.8173 130.038 31.7567 130.09 31.722C130.142 31.6873 130.229 31.67 130.35 31.67C130.454 31.67 130.558 31.7393 130.662 31.878C130.783 31.9993 130.844 32.1033 130.844 32.19ZM151.384 32.19C151.384 32.3113 151.323 32.4587 151.202 32.632C151.098 32.788 151.011 32.918 150.942 33.022C149.954 34.5473 148.793 35.622 147.458 36.246C146.141 36.8527 144.581 37.156 142.778 37.156C140.854 37.156 139.173 36.766 137.734 35.986C136.313 35.206 135.212 34.1053 134.432 32.684C133.652 31.2627 133.262 29.59 133.262 27.666C133.262 25.742 133.643 24.026 134.406 22.518C135.169 21.01 136.261 19.8227 137.682 18.956C139.103 18.0893 140.802 17.656 142.778 17.656C143.541 17.656 144.277 17.7773 144.988 18.02C145.716 18.2453 146.453 18.462 147.198 18.67C147.597 18.774 147.987 18.852 148.368 18.904C148.767 18.9387 149.157 18.956 149.538 18.956C149.607 19.5453 149.668 20.1433 149.72 20.75C149.789 21.3567 149.867 21.9633 149.954 22.57C149.989 22.7953 150.032 23.0207 150.084 23.246C150.136 23.4713 150.162 23.7053 150.162 23.948C150.162 24.208 150.075 24.3987 149.902 24.52C149.729 24.624 149.529 24.676 149.304 24.676C149.131 24.676 148.992 24.5893 148.888 24.416C148.784 24.2253 148.706 24.0173 148.654 23.792C148.602 23.5667 148.559 23.3933 148.524 23.272C148.16 21.8333 147.51 20.6807 146.574 19.814C145.655 18.93 144.425 18.488 142.882 18.488C142.293 18.488 141.686 18.592 141.062 18.8C140.455 18.9907 139.918 19.2593 139.45 19.606C138.635 20.1953 137.968 20.9233 137.448 21.79C136.945 22.6567 136.581 23.584 136.356 24.572C136.131 25.56 136.018 26.548 136.018 27.536C136.018 28.2293 136.087 28.9487 136.226 29.694C136.382 30.422 136.59 31.1067 136.85 31.748C137.457 33.1867 138.323 34.2613 139.45 34.972C140.577 35.6827 141.911 36.038 143.454 36.038C144.789 36.038 145.985 35.752 147.042 35.18C148.117 34.5907 149.061 33.7673 149.876 32.71C149.963 32.5713 150.049 32.4327 150.136 32.294C150.24 32.1553 150.344 32.0253 150.448 31.904C150.517 31.8173 150.578 31.7567 150.63 31.722C150.682 31.6873 150.769 31.67 150.89 31.67C150.994 31.67 151.098 31.7393 151.202 31.878C151.323 31.9993 151.384 32.1033 151.384 32.19Z" fill="#133115"/>
</svg>
