<svg width="50" height="50" viewBox="0 0 50 50" fill="none" xmlns="http://www.w3.org/2000/svg">
<circle cx="25" cy="25" r="25" fill="#92B774"/>
<path d="M9 13V33.5H28.5C28.5 32.0452 29.4311 30.4916 30.5 29.5C31.5689 28.5084 33 28 34.5 28C36 28 38 28 40 30V13H9Z" fill="#133115"/>
<path d="M9 33.5V13H40M9 33.5C9 33.5 20.8848 33.5 28.5 33.5M9 33.5H28.5M28.5 33.5C28.5 36.5 29 38 31 39.5C33 41 36.5 41.5 39 39.5C41.5 37.5 42 33.5 40 30M28.5 33.5C28.5 32.0452 29.4311 30.4916 30.5 29.5C31.5689 28.5084 33 28 34.5 28C36 28 38 28 40 30M40 30C40 23.3611 40 13 40 13M40 30V13" stroke="#133115" stroke-width="1.5" stroke-miterlimit="16" stroke-linecap="round"/>
<path d="M32 35L34.5 36.5L38.5 32" stroke="#133115" stroke-miterlimit="16" stroke-linecap="round"/>
<path d="M23 29.5H12C13.0418 27.4862 14.0386 26.7248 16.5 26V24.5C15.5455 23.79 15.3304 23.3303 15 22.5V18.5C15.6158 17.4545 16.1774 17.0768 17.5 17C19.0096 17.2221 19.5319 17.6824 20 19V22.5C19.6432 23.4724 19.3453 23.935 18.5 24.5V26C20.9078 26.7623 21.9053 27.5672 23 29.5Z" fill="#92B774" stroke="#92B774" stroke-miterlimit="16" stroke-linecap="round"/>
<path d="M27 25H36" stroke="#92B774" stroke-miterlimit="16" stroke-linecap="round"/>
<path d="M27 22H36" stroke="#92B774" stroke-miterlimit="16" stroke-linecap="round"/>
<path d="M27 19H36" stroke="#92B774" stroke-miterlimit="16" stroke-linecap="round"/>
</svg>
