<svg width="14" height="16" viewBox="0 0 14 16" fill="none" xmlns="http://www.w3.org/2000/svg">
    <path d="M8.79179 0.000390019C8.67629 -0.00141832 8.6095 0.00364841 8.6095 0.00364841C8.42153 0.0188734 8.25047 0.118157 8.14401 0.273832L0.302205 11.6947C0.238463 11.7883 0.20133 11.8975 0.19478 12.0105L0.00109666 15.1697C-0.01187 15.3886 0.0908551 15.5983 0.271797 15.7223C0.452739 15.8463 0.685405 15.8663 0.884889 15.7751L3.7625 14.46C3.86558 14.4129 3.95391 14.3387 4.01803 14.2452L11.8582 2.8243C11.9654 2.66879 11.9965 2.47316 11.9428 2.29207C11.9428 2.29207 11.6464 1.26243 10.6619 0.586349C9.92352 0.0792984 9.13828 0.00581502 8.79179 0.000390019ZM8.94153 1.31875C9.11902 1.31982 9.47121 1.28401 9.95553 1.6166C10.4387 1.94837 10.5314 2.28672 10.5968 2.45319L9.7 3.75853L8.04636 2.62247L8.94153 1.31875ZM7.33834 3.65437L8.99362 4.78881L3.08541 13.394L1.31132 14.2061L1.43176 12.2595L7.33834 3.65437ZM6.45781 14.5821C6.11263 14.5821 5.83281 14.8619 5.83281 15.2071C5.83281 15.5523 6.11263 15.8321 6.45781 15.8321C6.80298 15.8321 7.08281 15.5523 7.08281 15.2071C7.08281 14.8619 6.80298 14.5821 6.45781 14.5821ZM9.79114 14.5821C9.44597 14.5821 9.16614 14.8619 9.16614 15.2071C9.16614 15.5523 9.44597 15.8321 9.79114 15.8321C10.1363 15.8321 10.4161 15.5523 10.4161 15.2071C10.4161 14.8619 10.1363 14.5821 9.79114 14.5821ZM13.1245 14.5821C12.7793 14.5821 12.4995 14.8619 12.4995 15.2071C12.4995 15.5523 12.7793 15.8321 13.1245 15.8321C13.4697 15.8321 13.7495 15.5523 13.7495 15.2071C13.7495 14.8619 13.4697 14.5821 13.1245 14.5821Z" fill="#133115"/>
</svg>
